<svg width="103" height="100" viewBox="0 0 103 100" fill="none" xmlns="http://www.w3.org/2000/svg">
<g clip-path="url(#clip0_127_626)">
<path d="M13.0448 87.8286L4.84827 -4.10754H94.9167L86.712 87.8148L49.8279 98.0404L13.0448 87.8286Z" fill="#1572B6"/>
<path d="M49.8835 90.2247L79.6881 81.9613L86.7001 3.40906H49.8835V90.2247Z" fill="#33A9DC"/>
<path d="M49.8835 36.7176H64.8042L65.8347 25.1713H49.8835V13.8956H78.1579L77.8873 16.921L75.1154 47.9933H49.8835V36.7176Z" fill="white"/>
<path d="M49.9503 66.0012L49.9005 66.0159L37.3433 62.6253L36.5403 53.6323H25.223L26.8022 71.337L49.8989 77.7473L49.9503 77.7326V66.0012Z" fill="#EBEBEB"/>
<path d="M63.8453 47.5164L62.4871 62.6163L49.9111 66.011V77.7424L73.0266 71.3362L73.1962 69.431L75.1577 47.5164H63.8453Z" fill="white"/>
<path d="M49.9217 13.8956V25.1713H22.6859L22.4601 22.6375L21.9465 16.921L21.6766 13.8956H49.9217ZM49.8833 36.7193V47.9949H37.4843L37.2584 45.4612L36.744 39.7446L36.475 36.7193H49.8833Z" fill="#EBEBEB"/>
</g>
<defs>
<clipPath id="clip0_127_626">
<rect width="101.091" height="98.6448" fill="white" transform="translate(0.967773 0.496948)"/>
</clipPath>
</defs>
</svg>
