<svg width="90" height="84" viewBox="0 0 90 84" fill="none" xmlns="http://www.w3.org/2000/svg">
<g clip-path="url(#clip0_127_162)">
<path d="M78.8699 64.8232C76.0585 65.5384 74.3199 64.854 72.7601 62.5112C69.2582 57.2645 65.3925 52.2582 61.6624 47.1595C61.1815 46.4998 60.6822 45.8524 60.0595 45.0324C55.6451 50.9882 51.2368 56.6603 47.0999 62.5605C45.6202 64.6691 44.0665 65.5877 41.3045 64.8417L57.9016 42.5663L42.4512 22.4488C45.1085 21.9309 46.9458 22.196 48.5734 24.5758C52.1678 29.8287 56.1321 34.8288 60.0841 40.1187C64.0608 34.8473 67.9758 29.841 71.675 24.6375C73.1608 22.5289 74.7577 21.7274 77.4272 22.5042C75.405 25.1862 73.4259 27.8249 71.4345 30.4452C68.7464 33.978 66.1077 37.5539 63.3209 41.0126C62.3283 42.2457 62.4886 43.0472 63.3764 44.2124C68.5306 50.9882 73.6232 57.8317 78.8699 64.8232ZM1.59345 42.1964C2.03735 39.9707 2.33329 37.7018 2.94982 35.5193C6.64903 22.307 21.8158 16.8136 32.2352 25.0012C38.3389 29.804 39.8556 36.5736 39.5535 44.2063H5.15085C4.63296 57.8995 14.4914 66.1673 27.0563 61.9502C31.4646 60.4705 34.0602 57.0179 35.3611 52.7021C36.0208 50.5381 37.112 50.199 39.1466 50.8155C38.1046 56.2164 35.7433 60.7294 30.811 63.5531C23.4126 67.7826 12.8514 66.4139 7.2964 60.5383C4.01643 57.0857 2.62306 52.7884 2.00653 48.1459C1.91405 47.4061 1.72292 46.6786 1.57495 45.9449C1.58728 44.6954 1.59345 43.4459 1.59345 42.1964ZM5.21251 41.2777H36.3044C36.1009 31.3762 29.9356 24.3415 21.5075 24.2799C12.2595 24.2059 5.61326 31.0741 5.21251 41.2777Z" fill="#F2F2F2"/>
</g>
<defs>
<clipPath id="clip0_127_162">
<rect width="88.9604" height="86.8081" fill="white" transform="translate(0.773193 -3.75879)"/>
</clipPath>
</defs>
</svg>
