<svg width="105" height="102" viewBox="0 0 105 102" fill="none" xmlns="http://www.w3.org/2000/svg">
<g clip-path="url(#clip0_127_453)">
<path d="M91.5524 80.5185C88.2649 81.3548 86.2318 80.5545 84.4078 77.8149C80.3127 71.6796 75.7923 65.8254 71.4305 59.8631C70.8682 59.0916 70.2842 58.3346 69.556 57.3758C64.394 64.3402 59.2391 70.973 54.4015 77.8726C52.6712 80.3382 50.8544 81.4125 47.6245 80.5401L67.0327 54.4919L48.9655 30.9671C52.0728 30.3615 54.2213 30.6715 56.1246 33.4544C60.3278 39.597 64.9635 45.4439 69.5849 51.6297C74.235 45.4655 78.8131 39.6114 83.1389 33.5265C84.8764 31.0608 86.7437 30.1236 89.8654 31.032C87.5007 34.1681 85.1864 37.2538 82.8577 40.3179C79.7143 44.449 76.6286 48.6305 73.3699 52.6751C72.2091 54.117 72.3966 55.0543 73.4348 56.4169C79.462 64.3402 85.4171 72.3428 91.5524 80.5185ZM1.18764 54.0594C1.70673 51.4567 2.05279 48.8036 2.77375 46.2514C7.09949 30.8013 24.835 24.3775 37.0192 33.9519C44.1567 39.5681 45.9303 47.4842 45.577 56.4097H5.34757C4.74196 72.4221 16.2701 82.0902 30.9632 77.1588C36.118 75.4285 39.1533 71.3912 40.6745 66.3445C41.4459 63.8139 42.722 63.4174 45.1012 64.1383C43.8827 70.4539 41.1215 75.7313 35.3538 79.0333C26.7023 83.9791 14.3523 82.3786 7.8565 75.5078C4.02101 71.4705 2.39164 66.4454 1.67069 61.0166C1.56254 60.1514 1.33905 59.3007 1.16602 58.4428C1.18043 56.9816 1.18764 55.5205 1.18764 54.0594ZM5.41966 52.9851H41.7775C41.5396 41.4066 34.3301 33.1804 24.4746 33.1083C13.6602 33.0218 5.88829 41.0533 5.41966 52.9851Z" fill="black"/>
</g>
<defs>
<clipPath id="clip0_127_453">
<rect width="104.028" height="101.511" fill="white" transform="translate(0.228516 0.319092)"/>
</clipPath>
</defs>
</svg>
