<svg width="108" height="106" viewBox="0 0 108 106" fill="none" xmlns="http://www.w3.org/2000/svg">
<g clip-path="url(#clip0_127_249)">
<g clip-path="url(#clip1_127_249)">
<path d="M44.7469 106.071C53.8816 106.071 61.2508 98.526 61.2508 89.1737V72.2769H44.7469C35.6121 72.2769 28.2429 79.8215 28.2429 89.1737C28.2429 98.526 35.6121 106.071 44.7469 106.071Z" fill="#0ACF83"/>
<path d="M28.2429 55.3803C28.2429 46.0281 35.6121 38.4834 44.7469 38.4834H61.2508V72.2772H44.7469C35.6121 72.2772 28.2429 64.7325 28.2429 55.3803Z" fill="#A259FF"/>
<path d="M28.2429 21.5866C28.2429 12.2344 35.6121 4.6897 44.7469 4.6897H61.2508V38.4835H44.7469C35.6121 38.4835 28.2429 30.9388 28.2429 21.5866Z" fill="#F24E1E"/>
<path d="M61.2507 4.6897H77.7547C86.8894 4.6897 94.2586 12.2344 94.2586 21.5866C94.2586 30.9388 86.8894 38.4835 77.7547 38.4835H61.2507V4.6897Z" fill="#FF7262"/>
<path d="M94.2586 55.3803C94.2586 64.7325 86.8894 72.2772 77.7547 72.2772C68.6199 72.2772 61.2507 64.7325 61.2507 55.3803C61.2507 46.0281 68.6199 38.4834 77.7547 38.4834C86.8894 38.4834 94.2586 46.0281 94.2586 55.3803Z" fill="#1ABCFE"/>
</g>
</g>
<defs>
<clipPath id="clip0_127_249">
<rect width="107.533" height="104.931" fill="white" transform="translate(0.280273 0.353516)"/>
</clipPath>
<clipPath id="clip1_127_249">
<rect width="98.256" height="100.595" fill="white" transform="translate(9.81982 4.6897)"/>
</clipPath>
</defs>
</svg>
