<svg width="94" height="94" viewBox="0 0 94 94" fill="none" xmlns="http://www.w3.org/2000/svg">
<g clip-path="url(#clip0_127_270)">
<g clip-path="url(#clip1_127_270)">
<path d="M92.2059 39.8324L54.3137 1.94153C52.1329 -0.2406 48.5937 -0.2406 46.4095 1.94153L38.5417 9.81065L48.5229 19.7918C50.8432 19.0087 53.5024 19.534 55.3511 21.3827C57.2094 23.243 57.7305 25.925 56.9282 28.2528L66.5477 37.873C68.8749 37.0707 71.561 37.5891 73.4186 39.4508C76.0174 42.0475 76.0174 46.2571 73.4186 48.8551C72.801 49.473 72.0678 49.9632 71.2607 50.2976C70.4537 50.632 69.5887 50.8041 68.7151 50.8041C67.8415 50.8041 66.9765 50.632 66.1694 50.2976C65.3624 49.9632 64.6291 49.473 64.0115 48.8551C63.0837 47.9267 62.4512 46.7446 62.1937 45.4575C61.9362 44.1704 62.0651 42.8359 62.5644 41.622L53.5939 32.6515L53.5925 56.2609C54.2433 56.5814 54.8376 57.0059 55.3518 57.5177C57.9492 60.1143 57.9492 64.3225 55.3518 66.9247C52.7537 69.5214 48.5428 69.5214 45.9475 66.9247C43.3501 64.3232 43.3501 60.115 45.9475 57.5177C46.5698 56.8944 47.3099 56.4012 48.1248 56.067V32.239C47.3093 31.9057 46.5689 31.4122 45.9475 30.7877C43.9799 28.8214 43.5062 25.9339 44.5154 23.5167L34.6752 13.6765L8.69323 39.6571C7.64501 40.7056 7.05615 42.1276 7.05615 43.6102C7.05615 45.0929 7.64501 46.5148 8.69323 47.5633L46.5862 85.4542C48.7683 87.6363 52.3062 87.6363 54.4917 85.4542L92.2066 47.7393C93.2546 46.6905 93.8432 45.2684 93.8431 43.7857C93.843 42.303 93.2541 40.8811 92.2059 39.8324Z" fill="#F34F29"/>
</g>
</g>
<defs>
<clipPath id="clip0_127_270">
<rect width="93.6578" height="93.6578" fill="white" transform="translate(0.333862)"/>
</clipPath>
<clipPath id="clip1_127_270">
<rect width="88" height="88" fill="white" transform="translate(6.44922 -0.30249)"/>
</clipPath>
</defs>
</svg>
