<svg width="103" height="100" viewBox="0 0 103 100" fill="none" xmlns="http://www.w3.org/2000/svg">
<g clip-path="url(#clip0_127_636)">
<path d="M9.96575 94.1742L1.8092 2.69128H91.4342L83.2686 94.1603L46.5671 104.335L9.96575 94.1742Z" fill="#E44D26"/>
<path d="M46.6217 96.558L76.2787 88.3355L83.2564 10.1713H46.6217V96.558Z" fill="#F16529"/>
<path d="M46.6218 44.101H31.7745L30.7489 32.6109H46.6218V21.3915H18.4868L18.7558 24.4014L21.513 55.3212H46.6218V44.101ZM46.6218 73.2403L46.5721 73.2542L34.0768 69.8791L33.2786 60.9318H22.0144L23.5862 78.5484L46.5704 84.9285L46.6218 84.9147V73.2403Z" fill="#EBEBEB"/>
<path d="M46.5826 44.101V55.3212H60.3986L59.0967 69.8726L46.5826 73.2501V84.9236L69.5848 78.5484L69.7536 76.653L72.3901 47.1141L72.6632 44.101H69.6403H46.5826ZM46.5826 21.3915V32.6109H73.6847L73.9097 30.0902L74.4217 24.4014L74.6899 21.3915H46.5826Z" fill="white"/>
</g>
<defs>
<clipPath id="clip0_127_636">
<rect width="101.091" height="98.6448" fill="white" transform="translate(0.967896 0.521973)"/>
</clipPath>
</defs>
</svg>
