<svg width="97" height="97" viewBox="0 0 97 97" fill="none" xmlns="http://www.w3.org/2000/svg">
<g clip-path="url(#clip0_127_406)">
<path d="M93.3474 48.0971C93.3474 42.3125 88.9646 37.4446 83.0808 36.0556L96.2585 0.789307H30.9525L44.1604 36.1669C38.4615 37.668 34.2607 42.4509 34.2607 48.1264C34.2607 52.2971 36.5604 55.9956 40.0536 58.2758C38.6758 60.0558 37.0808 61.6975 35.2737 63.2542C31.8722 66.148 28.1001 68.3717 24.0256 69.8465C20.3482 67.5934 18.7554 63.6159 20.1948 60.0551C25.8026 58.4984 29.8809 53.7425 29.8809 48.1527C29.8809 41.2845 23.7203 35.7202 16.179 35.7202C8.60905 35.7202 2.4522 41.3108 2.4522 48.1813C2.4522 51.5752 3.98258 54.6886 6.43569 56.9123C6.22061 57.3034 6.00703 57.6907 5.79195 58.1081C3.73892 61.9479 1.40914 66.2863 0.518741 71.1542C-1.2583 80.8862 1.6528 88.7035 8.67071 93.1247C12.6249 95.6011 16.9784 96.8525 21.6672 96.8525C29.7245 96.8525 37.9088 93.1803 45.8141 89.6195C51.4543 87.0904 57.2765 84.4463 63.0077 83.1686C65.1231 82.6956 67.3288 82.4166 69.6586 82.1113C74.3761 81.4999 79.2499 80.8599 83.6328 78.5512C88.7503 75.8544 92.2435 71.3475 93.2565 66.175C94.0198 62.1968 93.2565 58.193 91.2937 54.6886C92.6344 52.7523 93.3515 50.4522 93.3474 48.0971ZM87.3726 48.0971C87.3726 51.9625 83.9088 55.106 79.6493 55.106C75.3898 55.106 71.926 51.9625 71.926 48.0971C71.926 46.8449 72.2937 45.65 72.9367 44.6212C73.1811 44.2301 73.4894 43.8429 73.794 43.5082C74.1168 43.164 74.4767 42.8566 74.8671 42.5915L74.8995 42.5622C75.1431 42.3952 75.4191 42.2275 75.6951 42.0628C75.6951 42.0628 75.7252 42.0628 75.7252 42.0335C75.8478 41.9778 75.9711 41.8951 76.0952 41.8395C76.1245 41.8395 76.1539 41.8101 76.1854 41.8101C76.3095 41.7575 76.4622 41.7018 76.6141 41.6454C76.7591 41.5948 76.9024 41.5391 77.0435 41.4785C77.0736 41.4785 77.1052 41.4484 77.1345 41.4484C77.2578 41.4228 77.3812 41.3664 77.5022 41.3401C77.5346 41.3401 77.5962 41.3108 77.6256 41.3108C77.7782 41.2845 77.9016 41.2551 78.0542 41.2281H78.0866L78.5453 41.1431C78.5769 41.1431 78.6355 41.1431 78.6679 41.1168C78.7912 41.1168 78.9123 41.0874 79.0356 41.0874H79.1883C79.341 41.0874 79.4966 41.0611 79.6786 41.0611H80.0779C80.1983 41.0611 80.293 41.0611 80.4133 41.0874H80.475C80.7217 41.1175 80.9653 41.1431 81.212 41.1995C84.7052 41.8658 87.3726 44.7039 87.3726 48.0971ZM39.5008 6.35055H87.7072L76.6442 35.9706C76.1854 36.0556 75.7244 36.1932 75.2665 36.3316L63.6221 14.7785L51.9446 36.1925C51.4836 36.0549 50.9933 35.9699 50.5052 35.8872L39.5008 6.35055ZM61.4126 45.6755C60.8313 43.0607 59.3596 40.7257 57.2765 39.0013L63.6221 27.3772L70.0256 39.251C68.1252 40.9754 66.7467 43.1728 66.1948 45.6755H61.4126ZM46.0607 41.2837C46.2134 41.2536 46.3367 41.2281 46.4894 41.1987H46.5804C46.7037 41.1724 46.8278 41.1724 46.9481 41.1423H47.0715C47.1948 41.1423 47.2858 41.116 47.4091 41.116H48.6049C48.7252 41.116 48.8192 41.1423 48.9102 41.1423C48.9718 41.1423 49.0012 41.1423 49.0628 41.1724C49.1862 41.1987 49.2772 41.1987 49.4012 41.2281C49.4298 41.2281 49.4622 41.2281 49.5238 41.2544C49.6772 41.2837 49.8299 41.31 49.9525 41.3394H49.9826C50.1059 41.3657 50.2292 41.392 50.3496 41.4484C50.3819 41.4484 50.4112 41.4777 50.4729 41.4777C50.5639 41.5041 50.6872 41.5334 50.7782 41.589C50.8105 41.589 50.8399 41.6154 50.8722 41.6154C50.9925 41.6718 51.1166 41.7011 51.24 41.7567H51.2693C51.4219 41.8094 51.5453 41.865 51.6686 41.9508H51.6987C51.8213 42.0064 51.9446 42.0884 52.0679 42.144C52.098 42.144 52.098 42.1741 52.1266 42.1741C52.2499 42.2267 52.3417 42.3117 52.465 42.3674L52.4973 42.3937C52.8643 42.6441 53.202 42.9231 53.5366 43.2021L53.569 43.2285C53.8751 43.5338 54.1804 43.8684 54.427 44.2301C55.2234 45.3431 55.6844 46.6509 55.6844 48.0692C55.6844 51.9354 52.2206 55.0759 47.9611 55.0759C43.7016 55.0759 40.2378 51.9354 40.2378 48.0692C40.2062 44.8145 42.6887 42.0621 46.0607 41.2837ZM15.903 41.0867C20.1632 41.0867 23.6263 44.2302 23.6263 48.0956C23.6263 51.9617 20.1632 55.1045 15.903 55.1045C11.6435 55.1045 8.17964 51.9617 8.17964 48.0956C8.17964 44.2302 11.6435 41.0867 15.903 41.0867ZM87.1876 65.2019C86.5145 68.759 84.0908 71.8762 80.5367 73.7382C77.1962 75.4919 73.0893 76.0469 68.7682 76.6027C66.4098 76.908 63.9274 77.2426 61.536 77.7713C55.1618 79.1904 49.0335 81.9721 43.088 84.6396C35.488 88.062 28.3144 91.2875 21.6672 91.2875C18.2034 91.2875 15.1073 90.3978 12.1669 88.5351C5.42497 84.3079 5.75962 76.3823 6.55902 72.0431C7.293 67.9807 9.34679 64.1709 11.3088 60.5281C11.4291 60.3047 11.5232 60.1107 11.6435 59.8874C12.3195 60.1107 13.0242 60.2784 13.7589 60.3897C12.5955 66.2856 15.903 72.3755 22.3396 75.3806L23.5052 75.9356L24.7603 75.5182C30.1245 73.7938 35.0887 70.9858 39.4715 67.2309C41.9539 65.1162 44.0694 62.8368 45.8464 60.3604C46.5511 60.4724 47.2565 60.5018 47.9611 60.5018C54.336 60.5018 59.6972 56.5235 61.2306 51.1834H66.3775C67.9109 56.5506 73.2743 60.501 79.6493 60.501C82.1934 60.501 84.5525 59.8618 86.5732 58.7774C87.3726 60.8627 87.6162 63.0308 87.1876 65.2019Z" fill="#99425B"/>
</g>
<defs>
<clipPath id="clip0_127_406">
<rect width="96.2594" height="96.2594" fill="white" transform="translate(-0.000732422 0.704346)"/>
</clipPath>
</defs>
</svg>
