<svg width="105" height="100" viewBox="0 0 105 100" fill="none" xmlns="http://www.w3.org/2000/svg">
<g clip-path="url(#clip0_127_614)">
<path d="M-1.59058 -0.849731H100.465V101.207H-1.59058V-0.849731Z" fill="#F0DB4F"/>
<path d="M92.1128 76.8663C91.3652 72.2104 88.3292 68.2997 79.3363 64.6531C76.2122 63.2174 72.7295 62.1894 71.6917 59.8219C71.3232 58.4442 71.2743 57.668 71.5074 56.834C72.1768 54.1274 75.4076 53.2836 77.9683 54.0598C79.6175 54.6125 81.1787 55.8835 82.1203 57.911C86.5243 55.0593 86.5153 55.078 89.5904 53.1182C88.4646 51.3727 87.8637 50.5672 87.1268 49.8205C84.478 46.8619 80.8689 45.3383 75.097 45.4548L72.0903 45.8437C69.2093 46.5717 66.4635 48.084 64.8534 50.1115C60.0223 55.5932 61.4 65.1871 67.2788 69.1353C73.0703 73.4822 81.5782 74.4711 82.6649 78.5359C83.7223 83.5122 79.0077 85.1231 74.3217 84.5508C70.8683 83.8326 68.9476 82.0773 66.8711 78.8856C63.0493 81.0974 63.0493 81.0974 59.1198 83.3573C60.0516 85.3946 61.0307 86.3166 62.5927 88.0816C69.9854 95.5803 88.4849 95.2118 91.803 83.8619C91.9375 83.4722 92.831 80.8732 92.1128 76.8663ZM53.89 46.0557H44.3442L44.3051 70.7348C44.3051 75.9834 44.5766 80.795 43.723 82.2697C42.3265 85.1704 38.7076 84.8109 37.0584 84.2483C35.3798 83.4233 34.5262 82.2502 33.5373 80.592C33.2659 80.1159 33.062 79.7474 32.9936 79.7188L25.2324 84.4717C26.523 87.1205 28.4241 89.4194 30.8593 90.913C34.4969 93.0962 39.3859 93.7655 44.4991 92.5916C47.827 91.6222 50.6983 89.6143 52.2016 86.5579C54.375 82.551 53.9087 77.7011 53.8891 72.3368C53.9381 63.5851 53.89 54.8351 53.89 46.0557Z" fill="#323330"/>
</g>
<defs>
<clipPath id="clip0_127_614">
<rect width="103.536" height="98.6448" fill="white" transform="translate(0.522217 0.448364)"/>
</clipPath>
</defs>
</svg>
