<svg width="105" height="98" viewBox="0 0 105 98" fill="none" xmlns="http://www.w3.org/2000/svg">
<g clip-path="url(#clip0_127_644)">
<path fill-rule="evenodd" clip-rule="evenodd" d="M70.7304 32.1678C72.0769 36.063 73.0467 40.0395 73.3655 44.1612C73.7615 49.2745 73.5803 54.3517 72.5023 59.3811C72.4729 59.5196 72.4108 59.6496 72.3647 59.7838C72.0266 59.7847 71.6818 59.7427 71.3512 59.7939C68.5584 60.2326 65.7682 60.6873 62.9779 61.1395C60.0936 61.6068 57.2052 62.0556 54.326 62.5548C53.3058 62.731 52.0432 62.5204 51.6313 63.9315C51.6196 63.9701 51.5021 63.9768 51.4342 63.9986L51.5734 55.5665L51.4316 35.2207L52.7756 34.99C54.9736 34.6301 57.1716 34.2652 59.3713 33.9153C61.9963 33.4984 64.6238 33.0932 67.2505 32.6863C68.4091 32.5059 69.5694 32.3407 70.7304 32.1678Z" fill="#439934"/>
<path fill-rule="evenodd" clip-rule="evenodd" d="M48.659 88.5792C47.2412 87.3603 45.7739 86.195 44.4149 84.9131C37.1019 78.0154 31.7529 69.8971 29.1186 60.1092C28.3929 57.4154 27.9089 54.678 27.7537 51.8944C27.6446 49.9464 27.4869 47.9808 27.6245 46.0429C27.9911 40.8885 28.7361 35.7836 30.2478 30.8188L30.3309 30.703C30.4777 30.8985 30.6891 31.0713 30.7638 31.2919C32.2394 35.6376 33.7042 39.9866 35.1614 44.3382C39.7403 58.0128 44.3133 71.6907 48.8998 85.3619C48.9896 85.6287 49.2219 85.8477 49.3889 86.0885L48.659 88.5792Z" fill="#45A538"/>
<path fill-rule="evenodd" clip-rule="evenodd" d="M70.7304 32.1679C69.5693 32.3407 68.4082 32.506 67.2497 32.6847C64.623 33.0916 61.9954 33.4968 59.3704 33.9137C57.1707 34.2635 54.9727 34.6285 52.7747 34.9884L51.4307 35.2191L51.4207 34.3424C51.3762 33.6218 51.2999 32.902 51.2915 32.1813C51.2336 27.5856 51.1975 22.99 51.1405 18.3943C51.1052 15.5176 51.0524 12.6417 50.9937 9.76589C50.9576 7.97896 50.919 6.1912 50.8385 4.40679C50.7948 3.44789 50.6405 2.49402 50.5775 1.53512C50.5423 0.983946 50.591 0.428573 50.6019 -0.125122C51.2873 1.20291 51.9576 2.541 52.6623 3.85897C53.7756 5.94287 55.5491 7.47812 57.1456 9.15347C63.4568 15.7743 67.9376 23.4724 70.7304 32.1679Z" fill="#46A037"/>
<path fill-rule="evenodd" clip-rule="evenodd" d="M51.4335 63.9979C51.5014 63.9761 51.6197 63.9694 51.6306 63.9308C52.0425 62.5197 53.3051 62.7303 54.3253 62.5541C57.2045 62.0558 60.0929 61.6061 62.9772 61.1388C65.7675 60.6866 68.5578 60.2319 71.3506 59.7932C71.6811 59.7411 72.0259 59.7839 72.364 59.7831C71.8422 61.6455 71.4311 63.5482 70.7692 65.3595C70.0175 67.414 69.1081 69.4191 68.1425 71.3847C66.6969 74.3165 64.9078 77.066 62.8128 79.5752C61.2028 81.5114 59.4084 83.3009 57.6097 85.0685C56.6156 86.0459 55.4436 86.842 54.353 87.7204L54.0702 87.5274L53.0518 86.6566L51.9981 84.347C51.2783 81.6528 50.8857 78.8817 50.8286 76.0936L50.8479 75.623L50.9914 73.5877C51.0392 72.8931 51.1029 72.1993 51.1323 71.503C51.2405 69.0013 51.3345 66.4996 51.4335 63.9979Z" fill="#409433"/>
<path fill-rule="evenodd" clip-rule="evenodd" d="M51.4334 63.9979C51.3345 66.4996 51.2405 69.0013 51.1339 71.5038C51.1046 72.2002 51.0408 72.894 50.993 73.5886L50.3512 73.831C48.9259 69.6347 47.4997 65.4828 46.1045 61.32C43.7975 54.4333 41.5181 47.5355 39.2144 40.6471C37.3537 35.087 35.4801 29.5313 33.5935 23.98C33.5055 23.7199 33.2521 23.5169 33.0759 23.2871L37.1833 15.735C37.3243 15.98 37.5105 16.209 37.5995 16.4724C39.5018 22.095 41.3944 27.7209 43.2773 33.35C45.7237 40.6739 48.1549 48.0037 50.5995 55.3284C50.6969 55.6212 50.8579 55.8913 51.0115 56.2193L51.5735 55.565L51.4334 63.9979Z" fill="#4FAA41"/>
<path fill-rule="evenodd" clip-rule="evenodd" d="M33.0768 23.2878C33.2529 23.5177 33.5055 23.7207 33.5944 23.9808C35.481 29.5321 37.3546 35.0878 39.2152 40.6479C41.5189 47.5363 43.7983 54.434 46.1054 61.3208C47.4997 65.4828 48.9259 69.6355 50.3521 73.8318L50.9938 73.5894L50.8504 75.6246L50.7204 76.0936C50.4972 78.3218 50.3093 80.555 50.0375 82.7782C49.9007 83.8923 49.6104 84.9863 49.3898 86.0895C49.2237 85.8487 48.9905 85.6297 48.9007 85.3629C44.3143 71.6909 39.7413 58.0138 35.1624 44.3392C33.7056 39.9873 32.2397 35.6386 30.7647 31.2929C30.69 31.0723 30.4794 30.8995 30.3318 30.704L33.0768 23.2878Z" fill="#4AA73C"/>
<path fill-rule="evenodd" clip-rule="evenodd" d="M51.5726 55.5658L51.0105 56.2202C50.857 55.8921 50.6959 55.6212 50.5986 55.3292C48.1548 48.0045 45.7227 40.6747 43.2764 33.3509C41.3934 27.7217 39.5008 22.0958 37.5985 16.4732C37.5104 16.2098 37.3242 15.9799 37.1824 15.7358L42.2621 9.05371C42.4223 9.26764 42.6505 9.45808 42.7336 9.69885C44.1438 13.8272 45.5415 17.9607 46.9308 22.0966C48.2286 25.959 49.5071 29.8273 50.8201 33.6848C50.9081 33.9431 51.2144 34.126 51.4191 34.3442L51.4291 35.2208C51.4778 42.0011 51.5256 48.7839 51.5726 55.5658Z" fill="#57AE47"/>
<path fill-rule="evenodd" clip-rule="evenodd" d="M51.4209 34.3423C51.2162 34.1242 50.91 33.9413 50.8219 33.6829C49.5089 29.8255 48.2304 25.9572 46.9326 22.0948C45.5433 17.9588 44.1456 13.8262 42.7354 9.69702C42.6523 9.45625 42.4242 9.26581 42.2639 9.05188C43.9158 7.43442 45.5165 5.75908 47.2346 4.21628C48.7623 2.84546 49.9905 1.37565 50.0467 -0.790469C50.0492 -0.880234 50.0962 -0.97 50.1683 -1.22168L50.6037 -0.126034C50.5928 0.4285 50.5433 0.983034 50.5794 1.53421C50.6423 2.49311 50.7967 3.44698 50.8403 4.40588C50.9209 6.19029 50.9594 7.97805 50.9955 9.76498C51.0534 12.6408 51.1063 15.5167 51.1423 18.3934C51.1985 22.9891 51.2355 27.5847 51.2933 32.1804C51.3001 32.9027 51.3756 33.6217 51.4209 34.3423Z" fill="#60B24F"/>
<path fill-rule="evenodd" clip-rule="evenodd" d="M49.3881 86.0885C49.6087 84.9853 49.899 83.8905 50.0357 82.7772C50.3084 80.5549 50.4955 78.3208 50.7186 76.0926L50.774 76.0842L50.8294 76.0935C50.8864 78.8816 51.2791 81.6527 51.9988 84.3469C51.8512 84.5415 51.6423 84.7152 51.5643 84.935C50.9544 86.6548 50.3797 88.388 49.7664 90.1078C49.6825 90.3427 49.4493 90.5256 49.2849 90.732L48.6582 88.5793L49.3881 86.0885Z" fill="#A9AA88"/>
<path fill-rule="evenodd" clip-rule="evenodd" d="M49.2859 90.733C49.4503 90.5266 49.6844 90.3437 49.7674 90.1088C50.3807 88.389 50.9562 86.6566 51.5653 84.936C51.6433 84.7162 51.8513 84.5425 51.9998 84.3479L53.0527 86.6583C52.8446 86.9536 52.5577 87.2196 52.4419 87.5484L50.4252 93.4704C50.3421 93.7079 50.0585 93.8757 49.8689 94.0762L49.2859 90.733Z" fill="#B6B598"/>
<path fill-rule="evenodd" clip-rule="evenodd" d="M49.8687 94.0751C50.0591 93.8754 50.3418 93.7068 50.4249 93.4694L52.4417 87.5473C52.5566 87.2193 52.8443 86.9525 53.0524 86.6572L54.0717 87.5272C53.5792 88.0138 53.3058 88.5759 53.4702 89.2864L53.1606 90.2999C53.0197 90.4735 52.8158 90.6245 52.7462 90.8234C52.0423 92.8393 51.3703 94.8662 50.6614 96.8821C50.5717 97.138 50.3225 97.3385 50.1463 97.5633C50.0549 96.3997 49.9618 95.2387 49.8687 94.0751Z" fill="#C2C1A7"/>
<path fill-rule="evenodd" clip-rule="evenodd" d="M50.1474 97.5638C50.3228 97.3381 50.5719 97.1376 50.6625 96.8825C51.3714 94.8674 52.0434 92.8406 52.7473 90.8238C52.8169 90.6258 53.0199 90.474 53.1617 90.3003L52.7347 94.9522C52.6206 95.0839 52.4553 95.1988 52.4008 95.3523C51.9184 96.7064 51.4637 98.0705 50.9796 99.4245C50.8798 99.7039 50.6885 99.9505 50.5392 100.211C50.4066 100.038 50.1692 99.87 50.1583 99.6888C50.1155 98.9832 50.1449 98.2727 50.1474 97.5638Z" fill="#CECDB7"/>
<path fill-rule="evenodd" clip-rule="evenodd" d="M50.5383 100.211C50.6877 99.9492 50.8789 99.7025 50.9788 99.424C51.4637 98.0708 51.9175 96.7067 52.3999 95.3518C52.4545 95.1983 52.6206 95.0842 52.7338 94.9517L52.7439 98.0054L51.7221 100.626L50.5383 100.211Z" fill="#DBDAC7"/>
<path fill-rule="evenodd" clip-rule="evenodd" d="M53.4703 89.2876C53.3059 88.577 53.5785 88.0141 54.0718 87.5283L54.3545 87.7213L53.4703 89.2876Z" fill="#CECDB7"/>
<path fill-rule="evenodd" clip-rule="evenodd" d="M50.8292 76.0943L50.7739 76.0851L50.7185 76.0935L50.8485 75.6245L50.8292 76.0943Z" fill="#4FAA41"/>
</g>
<defs>
<clipPath id="clip0_127_644">
<rect width="104.028" height="101.511" fill="white" transform="translate(0.228516 -3.74854)"/>
</clipPath>
</defs>
</svg>
