<svg width="105" height="103" viewBox="0 0 105 103" fill="none" xmlns="http://www.w3.org/2000/svg">
<g clip-path="url(#clip0_127_359)">
<g clip-path="url(#clip1_127_359)">
<path d="M0.228271 82.7255H3.5646V69.554L8.72875 81.0353C9.33671 82.4274 10.1696 82.9158 11.8071 82.9158C13.4446 82.9158 14.2437 82.4274 14.8516 81.0353L20.0158 69.554V82.7247H23.3521V69.576C23.3521 68.2917 22.8393 67.6711 21.7791 67.3518C19.2442 66.5622 17.5454 67.2441 16.7746 68.9555L11.7088 80.2889L6.80262 68.9555C6.06567 67.2441 4.33301 66.5622 1.80127 67.3518C0.741069 67.6711 0.228271 68.2917 0.228271 69.576L0.228271 82.7255ZM26.1277 72.0032H29.4609V79.2602C29.4302 79.6534 29.5867 80.5784 31.4145 80.609H38.6684V71.9662H42.011C42.0267 71.9662 42.0047 83.7511 42.0047 83.8006C42.0228 86.7068 38.401 87.3367 36.7297 87.3863H26.1985V85.1432L36.7486 85.1401C38.8957 84.9159 38.6409 83.8463 38.6409 83.49V82.6146H31.5529C28.2536 82.5839 26.1552 81.1431 26.1277 79.4867C26.1245 79.3365 26.1985 72.0771 26.1277 72.0032Z" fill="#00618A"/>
<path d="M44.5797 82.7253H54.1711C55.2926 82.7253 56.3835 82.4886 57.2494 82.0835C58.6934 81.4229 59.3966 80.5231 59.3966 79.3465V76.9099C59.3966 75.948 58.5975 75.0483 57.0245 74.4521C56.1916 74.1297 55.1628 73.9606 54.1703 73.9606H50.1269C48.7812 73.9606 48.1394 73.5547 47.9797 72.6581C47.9491 72.5504 47.9491 72.4646 47.9491 72.3569V70.8389C47.9491 70.7532 47.9491 70.6667 47.9797 70.5597C48.1394 69.8778 48.4925 69.6844 49.6786 69.5766L50.001 69.5554H59.5248V67.3343H50.1615C48.8158 67.3343 48.1095 67.42 47.467 67.6112C45.4795 68.2317 44.6127 69.2148 44.6127 70.9262V72.8713C44.6127 74.3672 46.3116 75.6515 49.1658 75.9496L50.1277 75.9929H53.593C53.722 75.9929 53.8478 75.9929 53.9461 76.0141C55.0032 76.0998 55.4515 76.2933 55.774 76.6779C55.9399 76.8313 56.0351 77.0499 56.0288 77.2741V79.2222C56.0288 79.4558 55.8691 79.7571 55.5498 80.0119C55.2612 80.2699 54.779 80.439 54.1396 80.4822L53.7865 80.5034H44.5797V82.7253ZM80.2058 78.8542C80.2058 81.1429 81.9077 82.4241 85.3361 82.6821L86.3011 82.7253H94.9927V80.5011H86.2366C84.2798 80.5011 83.5421 80.0095 83.5421 78.8329V67.3296H80.2089V78.8534L80.2058 78.8542ZM61.5264 78.9706V71.0411C61.5264 69.0284 62.9429 67.8062 65.7381 67.4216C66.0363 67.3785 66.3373 67.357 66.6386 67.3571H72.9676C73.2901 67.3571 73.5787 67.3784 73.902 67.4216C76.698 67.8054 78.1113 69.0284 78.1113 71.0411V78.9706C78.1113 80.6049 77.512 81.4779 76.127 82.0489L79.4145 85.014H75.5402L72.8827 82.6144L70.207 82.7835H66.6402C65.9773 82.7811 65.3179 82.688 64.6803 82.5067C62.5575 81.9294 61.528 80.8141 61.528 78.9706H61.5264ZM65.127 78.7771C65.127 78.8848 65.1577 78.9918 65.1915 79.1216C65.385 80.0433 66.2517 80.5561 67.5691 80.5561H70.5987L67.8152 78.0433H71.6895L74.1167 80.2368C74.565 79.9969 74.8568 79.6344 74.9614 79.1648C74.992 79.0571 74.992 78.9501 74.992 78.8424V71.2385C74.992 71.1528 74.992 71.045 74.9614 70.9373C74.7679 70.08 73.9012 69.5884 72.6145 69.5884H67.5699C66.092 69.5884 65.1278 70.2302 65.1278 71.2385L65.127 78.7771Z" fill="#E48E00"/>
<path d="M97.9263 63.6403C95.8775 63.5853 94.31 63.7756 92.9706 64.3411C92.5899 64.5008 91.9811 64.5039 91.9198 64.9805C92.129 65.2015 92.1628 65.5303 92.3288 65.7977C92.6481 66.3168 93.1892 67.0081 93.6713 67.3707L95.3025 68.5379C96.3037 69.149 97.4253 69.4998 98.3935 70.1109C98.9621 70.4735 99.5268 70.928 100.083 71.337C100.357 71.5368 100.541 71.853 100.9 71.9788V71.9206C100.713 71.6807 100.663 71.352 100.491 71.1034L99.7321 70.3445C98.992 69.3613 98.0513 68.4978 97.0501 67.7789C96.2511 67.2071 94.4696 66.4332 94.1346 65.5051L94.0764 65.4469C94.6419 65.3856 95.3057 65.1795 95.8248 65.0411C96.7033 64.8044 97.4866 64.8657 98.3903 64.6321L99.6165 64.279V64.0485C99.1587 63.5782 98.8331 62.9577 98.3321 62.5306C97.0297 61.4216 95.6038 60.3095 94.1354 59.3815C93.3213 58.8687 92.317 58.5368 91.4534 58.1003C91.1648 57.9532 90.6543 57.8792 90.4608 57.6331C90.0094 57.0558 89.7632 56.3243 89.4132 55.6511L87.3148 51.2207C86.8728 50.2101 86.5834 49.2112 86.0305 48.3052C83.3855 43.9519 80.5344 41.325 76.119 38.7445C75.1823 38.1948 74.0482 37.9793 72.8566 37.6969L70.9305 37.5805C70.5404 37.4145 70.1346 36.9356 69.7665 36.7051C68.3044 35.7802 64.5528 33.7715 63.4682 36.4133C62.7863 38.0815 64.4914 39.7095 65.1025 40.555C65.5296 41.1481 66.0794 41.8119 66.3838 42.478C66.5867 42.9145 66.6205 43.3534 66.7927 43.8174C67.2167 44.9602 67.5855 46.2013 68.1353 47.2584C68.4121 47.7932 68.7157 48.3555 69.0665 48.8314C69.2812 49.1232 69.6501 49.2553 69.7083 49.7067C69.3489 50.2109 69.3276 50.9911 69.1247 51.6297C68.2124 54.502 68.5561 58.0719 69.8837 60.201C70.2895 60.8522 71.2475 62.253 72.5656 61.7158C73.7179 61.2455 73.4599 59.7928 73.7886 58.5084C73.8657 58.2198 73.8193 58.0043 73.964 57.8108V57.869L75.0148 59.9674C75.7919 61.2179 77.1682 62.5235 78.3362 63.4052C78.9441 63.8629 79.4208 64.6557 80.2041 64.9231V64.8618H80.1459C79.9925 64.6282 79.7558 64.5299 79.5623 64.3395C79.1046 63.8912 78.5973 63.3352 78.2229 62.8216C77.1596 61.3807 76.2197 59.8015 75.3656 58.1577C74.9566 57.3743 74.6003 56.5076 74.2566 55.7093C74.1245 55.4018 74.1276 54.9354 73.8508 54.7781C73.4733 55.3617 72.9172 55.8351 72.6246 56.5265C72.1574 57.6291 72.0992 58.978 71.9239 60.3732L71.8075 60.4314C70.9966 60.2348 70.7103 59.3995 70.4098 58.683C69.6446 56.8702 69.5038 53.9483 70.1762 51.8625C70.3485 51.3222 71.135 49.6194 70.8157 49.1224C70.6655 48.6245 70.1645 48.3359 69.8845 47.9552C69.5184 47.4448 69.2056 46.8982 68.9509 46.324C68.3272 44.9075 68.0354 43.3227 67.3779 41.8937C67.0649 41.2086 66.5332 40.5173 66.0967 39.9093C65.6114 39.2369 65.0703 38.7422 64.6959 37.9273C64.5638 37.6387 64.3829 37.1747 64.5795 36.8766C64.6409 36.6768 64.7329 36.5942 64.9295 36.5297C65.2677 36.2686 66.2107 36.6155 66.5607 36.7602C67.4974 37.1503 68.2784 37.5191 69.0704 38.0445C69.448 38.2962 69.8326 38.7846 70.2934 38.9199H70.8188C71.6391 39.1071 72.5578 38.975 73.3262 39.2086C74.6813 39.6199 75.898 40.2625 76.9976 40.9601C80.3583 43.0797 83.1055 46.0999 84.9852 49.7036C85.2896 50.284 85.4186 50.8369 85.686 51.452C86.224 52.6931 86.8996 53.9711 87.4344 55.1847C87.9692 56.3983 88.4883 57.6181 89.241 58.6256C89.6374 59.1542 91.1703 59.4365 91.8647 59.7315C92.3532 59.9375 93.1522 60.1522 93.6131 60.4322C94.4979 60.9639 95.3521 61.5962 96.1818 62.1806C96.5932 62.4755 97.8657 63.115 97.9302 63.6396L97.9263 63.6403ZM71.8641 41.428C71.5113 41.422 71.1593 41.4611 70.8165 41.5444V41.6027H70.8747C71.0776 42.0234 71.437 42.294 71.6887 42.6534L72.2723 43.8764L72.3305 43.8214C72.6931 43.5665 72.8559 43.1576 72.8559 42.537C72.7088 42.3836 72.6899 42.1933 72.5641 42.0116C72.3981 41.7686 72.0764 41.6341 71.8641 41.428Z" fill="#00618A"/>
</g>
</g>
<defs>
<clipPath id="clip0_127_359">
<rect width="104.028" height="101.511" fill="white" transform="translate(0.228271 0.84082)"/>
</clipPath>
<clipPath id="clip1_127_359">
<rect width="100.672" height="100.672" fill="white" transform="translate(0.228271 10.908)"/>
</clipPath>
</defs>
</svg>
