<svg width="105" height="95" viewBox="0 0 105 95" fill="none" xmlns="http://www.w3.org/2000/svg">
<g clip-path="url(#clip0_127_366)">
<path d="M50.0046 19.8244C45.6421 20.5509 41.9793 22.3412 39.2386 25.0812C35.9944 28.3253 34.3451 32.2121 33.7855 37.973C33.5338 40.6014 33.3937 50.9488 33.6177 50.9488C33.6739 50.9488 34.205 50.7525 34.7922 50.5008C36.1622 49.9136 39.127 49.9136 40.6647 50.4731L41.8392 50.8926L41.9793 44.1535C42.1186 36.9663 42.2864 35.8757 43.6287 33.1911C44.5515 31.4017 46.7889 29.3043 48.6908 28.4369C50.872 27.4302 54.06 27.0392 56.5206 27.4302C61.7781 28.2976 64.9099 31.15 66.2245 36.239C66.7555 38.2809 66.7832 39.343 66.7832 50.5847V62.6939H75.2287L75.0886 49.4664C75.0048 36.9663 74.9494 36.1274 74.3621 33.89C72.7682 27.6819 68.9091 23.1801 63.5114 21.1382C60.6313 20.0476 57.8905 19.6281 54.1153 19.6566C52.242 19.6843 50.3964 19.7682 50.0046 19.8244Z" fill="black"/>
<path d="M15.9441 40.4898C13.5397 41.692 12.2528 43.8455 12.2528 46.7541C12.2528 47.6769 12.4206 48.8514 12.6446 49.3825C13.1756 50.6971 14.6857 52.291 16.0003 52.9899C17.5943 53.8288 20.6144 53.8288 22.1807 53.0176L23.3267 52.4303L26.9064 54.8632L30.4862 57.3246V61.0436L26.9064 63.5042L23.299 65.9656L22.3762 65.4061C21.0339 64.6233 18.4332 64.4556 16.8392 65.0705C15.1614 65.7139 13.4273 67.2517 12.7847 68.7056C12.085 70.188 12.085 73.0965 12.7847 74.5781C13.3719 75.8927 14.7419 77.3466 15.9726 77.99C16.476 78.2417 17.6782 78.4934 18.6849 78.5773C21.0339 78.7451 23.0197 77.9624 24.4458 76.2845C25.5918 74.9422 26.3469 72.5932 26.1514 70.9707L26.0113 69.8247L29.6187 67.3918L33.2261 64.9589L34.513 65.5462C36.4703 66.3851 39.3788 66.1888 41.2245 65.0705C43.2379 63.8121 44.2446 62.0226 44.3562 59.5058C44.4401 57.7441 44.3562 57.3523 43.6574 55.9823C41.8394 52.5142 37.7849 51.2004 34.3167 52.9337L33.2823 53.437L29.7311 51.0041L26.1791 48.5712L26.0952 46.614C26.0398 44.265 25.3687 42.7549 23.7185 41.3849C21.6212 39.5946 18.4894 39.2314 15.9441 40.4898Z" fill="#018BFF"/>
</g>
<defs>
<clipPath id="clip0_127_366">
<rect width="104.028" height="101.511" fill="white" transform="translate(0.228271 -7.49707)"/>
</clipPath>
</defs>
</svg>
