<svg width="108" height="106" viewBox="0 0 108 106" fill="none" xmlns="http://www.w3.org/2000/svg">
<g clip-path="url(#clip0_127_258)">
<path d="M92.5476 24.3205C75.9418 2.81678 45.0456 -1.15295 23.5411 15.456C2.03969 32.065 -1.92607 62.9612 14.6829 84.4625C31.295 105.963 62.1936 109.926 83.6918 93.3143C105.184 76.7054 109.151 45.8187 92.5476 24.3205Z" fill="#F37036"/>
<path d="M75.0777 22.8129C73.3841 22.9483 71.7783 23.6222 70.4953 24.736C68.9934 26.0398 68.0349 27.8593 67.8089 29.8352C67.5829 31.8112 68.1059 33.8001 69.2745 35.4094C70.4416 37.0194 72.1697 38.1335 74.1178 38.5319C76.066 38.9303 78.0927 38.584 79.7981 37.5615H79.7997L79.9234 37.6852C80.485 37.3631 81.0077 36.9775 81.481 36.5358C82.9408 34.9915 83.7438 32.9407 83.7207 30.8158C83.6977 28.6909 82.8503 26.658 81.3573 25.1458V25.1442L74.3469 32.111L74.2232 31.9882L81.2337 25.0182C80.4222 24.2358 79.4538 23.6347 78.3925 23.2548C77.3312 22.8749 76.2014 22.7248 75.0777 22.8145V22.8129ZM65.8478 34.2172C62.4868 34.2116 56.9991 38.0212 43.5997 51.4207L43.6663 51.4888C43.5934 51.4635 43.5197 51.4611 43.5197 51.4611L38.4751 56.4613C38.3455 56.5845 38.2598 56.7467 38.2309 56.9231C38.202 57.0995 38.2315 57.2806 38.3149 57.4387C38.3984 57.5968 38.5312 57.7233 38.6932 57.799C38.8552 57.8747 39.0374 57.8954 39.2123 57.858L47.8635 56.0126C47.9017 55.9767 47.9273 55.9295 47.9365 55.8779L48.1283 56.076L45.1795 59.001H45.0369L27.5298 76.646L33.1467 82.0552C33.3038 82.1968 33.5019 82.2846 33.7124 82.3059C33.9228 82.3271 34.1345 82.2807 34.3167 82.1734C34.5005 82.0668 34.6477 81.9071 34.739 81.7152C34.8302 81.5233 34.8613 81.3083 34.828 81.0985L34.0075 77.5314C33.9564 77.4597 33.9289 77.3738 33.9289 77.2857C33.9289 77.1976 33.9564 77.1117 34.0075 77.04C41.676 73.3843 48.8073 68.6947 55.2021 63.1023L51.6074 59.506L51.6755 59.4949L49.5432 57.3634L49.6796 57.2254L49.8238 57.3729L49.7493 57.445L55.4067 63.226V63.2236C66.2505 52.9553 73.9474 44.7011 71.9459 39.1461C71.8547 38.4818 71.5461 37.8663 71.0684 37.3958V37.399C70.9471 37.3086 70.8191 37.2275 70.6855 37.1564C70.6197 37.0867 70.5618 37.0153 70.4921 36.9472L70.4398 36.9995C70.2929 36.9097 70.1385 36.8328 69.9784 36.7696L70.2075 36.5381C68.7839 35.2699 67.6075 34.2204 65.8478 34.2156V34.2172ZM27.4077 76.7514L23.3088 80.8512V80.8543C23.1617 80.9454 23.0474 81.0809 22.9823 81.2412C22.9172 81.4014 22.9046 81.5783 22.9465 81.7461C22.987 81.9139 23.0793 82.0647 23.2104 82.1769C23.3414 82.2892 23.5046 82.3573 23.6766 82.3715L33.7214 83.0651L27.4077 76.7514Z" fill="white"/>
<path d="M75.7691 22.1357C73.4685 22.1329 71.2592 23.0355 69.6187 24.6485C68.4515 25.8431 67.6523 27.3481 67.3164 28.9841C66.9805 30.6201 67.1221 32.3183 67.7242 33.8761C63.9661 32.267 58.8819 35.073 43.0672 50.8846C43.0561 50.9089 43.0463 50.9337 43.0379 50.9591C43.0056 50.9737 42.9741 50.9902 42.9436 51.0082L37.9425 56.0528C37.7028 56.2881 37.5454 56.5944 37.4936 56.9263C37.4417 57.2581 37.4983 57.5978 37.6548 57.895C37.7945 58.1301 37.9924 58.3254 38.2293 58.462C38.4663 58.5986 38.7344 58.6719 39.0079 58.675L39.256 58.5141L45.9335 57.0896L42.739 60.3135C42.7204 60.3558 42.7061 60.3999 42.6962 60.445L27.0409 76.1393C26.9784 76.1917 26.9268 76.2558 26.8887 76.3279L22.8571 80.3626C22.6562 80.5747 22.5189 80.839 22.4609 81.1253C22.4028 81.4116 22.4264 81.7085 22.5289 81.9821C22.6341 82.254 22.8123 82.4915 23.044 82.6685C23.2756 82.8454 23.5517 82.9549 23.8416 82.9848L33.8436 83.6824C34.0142 83.6224 34.1595 83.5065 34.2558 83.3534C34.3418 83.2339 34.3881 83.0904 34.3881 82.9432C34.3881 82.796 34.3418 82.6525 34.2558 82.533L34.2352 82.5132C34.451 82.3998 34.6412 82.2434 34.794 82.0534C34.9547 81.845 35.0669 81.6034 35.1225 81.3462C35.1782 81.089 35.1759 80.8226 35.1159 80.5664L34.3359 77.2474C41.8191 73.6711 48.8305 69.1819 55.2102 63.8821C55.2721 63.9173 55.3382 63.9447 55.4068 63.9637C55.6082 63.9487 55.7968 63.8623 55.9395 63.7196C66.6803 53.5495 72.9939 46.5803 72.9939 41.0474C73.0172 40.28 72.9015 39.5146 72.6523 38.7883C73.6202 39.1897 74.6528 39.4126 75.7001 39.4462L75.6882 39.4494C77.1307 39.4053 78.5407 39.0108 79.7967 38.3C79.7977 38.3003 79.7988 38.3006 79.7999 38.3008C79.9624 38.3495 80.1375 38.3339 80.2889 38.2572C80.895 37.9004 81.4474 37.4595 81.9298 36.9477C82.7472 36.1457 83.3966 35.1887 83.84 34.1329C84.2835 33.077 84.512 31.9433 84.5123 30.7981C84.5121 29.653 84.2837 28.5194 83.8404 27.4635C83.3971 26.4076 82.7479 25.4507 81.9306 24.6485C81.9014 24.622 81.8701 24.5979 81.837 24.5764C80.2053 23.0096 78.0305 22.1353 75.7683 22.1365L75.7691 22.1357ZM75.7001 23.5404C77.302 23.5499 78.8569 24.0827 80.128 25.0576L73.7327 31.4917C73.7107 31.5161 73.6906 31.5421 73.6725 31.5694C73.5572 31.686 73.4896 31.8415 73.483 32.0054C73.4831 32.1044 73.5054 32.2021 73.5483 32.2913C73.5913 32.3805 73.6537 32.4589 73.7311 32.5206H73.7327L78.568 37.3559C77.2445 37.9331 75.7775 38.0971 74.3591 37.8266C72.9408 37.556 71.6372 36.8634 70.6191 35.8396C68.5692 33.7786 67.9747 30.684 69.071 27.9992C70.1672 25.312 72.7807 23.5562 75.7001 23.5404ZM81.344 26.2608C82.3897 27.526 82.9598 29.1171 82.9555 30.7585C82.9525 32.6814 82.1862 34.5244 80.8248 35.8824C80.5518 36.1391 80.261 36.3762 79.9544 36.5918L76.0521 32.7497L75.2887 31.9863L75.4988 31.7763L81.3432 26.2593L81.344 26.2608ZM81.0539 29.5845C80.9104 29.5392 80.7553 29.5479 80.6179 29.6091C80.4819 29.6795 80.3793 29.8009 80.3325 29.9468C80.3096 30.0196 80.3013 30.0963 80.3081 30.1723C80.3149 30.2484 80.3367 30.3223 80.3722 30.3899C80.5131 30.686 80.5686 31.0156 80.5326 31.3415C80.4967 31.6675 80.3705 31.977 80.1685 32.2352C80.1168 32.2851 80.0763 32.3454 80.0496 32.4121C80.023 32.4787 80.0108 32.5503 80.0139 32.6221C80.0171 32.7679 80.0694 32.9074 80.1685 33.0121C80.2741 33.0524 80.391 33.0524 80.4966 33.0121C80.5919 33.0359 80.6919 33.0331 80.7858 33.0042C80.8797 32.9753 80.9639 32.9213 81.0293 32.848C81.3666 32.4344 81.5801 31.9339 81.6454 31.4042C81.7106 30.8745 81.6248 30.3371 81.3979 29.854V29.8572C81.3206 29.7272 81.1981 29.6301 81.0539 29.5845ZM65.7734 34.9137C66.7301 34.9454 67.6507 35.2864 68.3972 35.8855C67.5928 36.0013 66.8474 36.3739 66.272 36.9477L48.1934 54.9454L44.6454 51.3974C54.0212 42.066 59.7538 37.1919 63.3177 35.5946C64.0518 35.1315 64.9057 34.8953 65.7734 34.9137ZM68.9164 37.26C69.5235 37.2601 70.1058 37.5006 70.5358 37.929C70.7648 38.1437 70.9453 38.4047 71.0655 38.6946C71.1856 38.9845 71.2426 39.2967 71.2326 39.6103C71.2222 39.9228 71.1476 40.2298 71.0132 40.5121C70.8789 40.7944 70.6878 41.046 70.4518 41.2512L51.2294 57.9814L49.155 55.907L67.297 37.929C67.7272 37.5009 68.3095 37.2598 68.9164 37.26ZM71.2897 42.5694C69.9501 47.8819 62.85 55.0802 55.4464 62.0748L52.4525 59.084L71.2897 42.5694ZM43.5999 52.4453L43.8171 52.6594L46.6018 55.444L38.9683 57.077L43.5999 52.4453ZM48.1919 57.0746L48.195 57.0777L49.1209 58.025C49.1248 58.0474 49.1295 58.0696 49.1351 58.0916L49.197 58.1011L49.3936 58.3024L50.0436 58.9683L45.775 59.4914L48.1927 57.0738L48.1919 57.0746ZM51.2571 60.3055L54.0933 63.1401C47.8219 68.3551 40.9399 72.7886 33.5987 76.343C33.3603 76.4565 33.1687 76.6491 33.0564 76.888C32.9441 77.1269 32.9181 77.3973 32.9828 77.6533L33.8032 81.2203C33.8334 81.2622 33.8497 81.3125 33.8497 81.3642C33.8497 81.4158 33.8334 81.4662 33.8032 81.5081C33.7581 81.5485 33.6997 81.5709 33.6391 81.5709C33.5785 81.5709 33.5201 81.5485 33.475 81.5081L28.6381 76.6315L43.5468 61.5041L51.2571 60.3055ZM27.5299 77.6969L28.2188 78.3421L31.7795 81.9028L23.84 81.3892L27.5299 77.6969Z" fill="#F37036"/>
</g>
<defs>
<clipPath id="clip0_127_258">
<rect width="107.533" height="104.931" fill="white" transform="translate(0.280762 0.189941)"/>
</clipPath>
</defs>
</svg>
