<svg width="103" height="99" viewBox="0 0 103 99" fill="none" xmlns="http://www.w3.org/2000/svg">
<g clip-path="url(#clip0_127_608)">
<path d="M51.5128 61.8231C56.6456 61.8231 60.8066 57.6621 60.8066 52.5293C60.8066 47.3965 56.6456 43.2355 51.5128 43.2355C46.38 43.2355 42.219 47.3965 42.219 52.5293C42.219 57.6621 46.38 61.8231 51.5128 61.8231Z" fill="#61DAFB"/>
<path d="M86.8129 37.2027C85.0193 36.5505 83.1443 35.8983 81.1877 35.3276C81.6768 33.371 82.0844 31.4144 82.4105 29.5394C84.1226 18.7781 82.2475 11.1963 77.0299 8.26143C75.4809 7.36465 73.7689 6.95703 71.8123 6.95703C66.1056 6.95703 58.8499 11.1963 51.5127 18.289C44.1755 11.1963 36.9198 6.95703 31.2131 6.95703C29.2565 6.95703 27.5445 7.36465 25.9955 8.26143C20.7779 11.2778 18.9028 18.8596 20.6149 29.5394C20.941 31.4144 21.3486 33.371 21.8377 35.3276C19.8811 35.8983 18.0061 36.469 16.2125 37.2027C6.02195 41.1159 0.478271 46.4965 0.478271 52.5293C0.478271 58.5621 6.10347 63.9428 16.2125 67.8559C18.0061 68.5081 19.8811 69.1603 21.8377 69.731C21.3486 71.6876 20.941 73.6442 20.6149 75.5193C18.9028 86.2805 20.7779 93.8623 25.9955 96.7972C27.5445 97.694 29.2565 98.1016 31.2131 98.1016C37.0013 98.1016 44.257 93.8623 51.5127 86.7697C58.8499 93.8623 66.1056 98.1016 71.8123 98.1016C73.7689 98.1016 75.4809 97.694 77.0299 96.7972C82.2475 93.7808 84.1226 86.199 82.4105 75.5193C82.0844 73.6442 81.6768 71.6876 81.1877 69.731C83.1443 69.1603 85.0193 68.5897 86.8129 67.8559C97.0035 63.9428 102.547 58.5621 102.547 52.5293C102.547 46.4965 97.0035 41.1159 86.8129 37.2027ZM74.7472 12.3377C78.0897 14.2942 79.2311 20.3271 77.8452 28.8872C77.6006 30.5992 77.193 32.3927 76.7038 34.2678C72.4645 33.2895 67.9807 32.6373 63.2523 32.2297C60.4804 28.3165 57.6271 24.8109 54.7737 21.6315C60.8065 15.6802 66.9209 11.6039 71.8939 11.6039C72.9537 11.6039 73.932 11.8485 74.7472 12.3377ZM65.6165 60.6818C64.149 63.2906 62.437 65.8993 60.6435 68.5081C57.627 68.7527 54.6106 68.8342 51.5127 68.8342C48.3332 68.8342 45.3168 68.7527 42.3819 68.5081C40.5884 65.8993 38.9579 63.2906 37.4905 60.6818C35.9415 57.9915 34.474 55.2196 33.1697 52.5293C34.474 49.839 35.9415 47.0672 37.4905 44.3768C38.9579 41.7681 40.6699 39.1593 42.4635 36.5505C45.4799 36.3059 48.4963 36.2244 51.5942 36.2244C54.7737 36.2244 57.7901 36.3059 60.725 36.5505C62.5185 39.1593 64.149 41.7681 65.6165 44.3768C67.1654 47.0672 68.6329 49.839 69.9373 52.5293C68.5514 55.2196 67.1654 57.9099 65.6165 60.6818ZM72.383 57.9915C73.6059 60.8448 74.5842 63.6167 75.4809 66.3885C72.7091 67.0407 69.7742 67.5298 66.6763 67.9375C67.6546 66.3885 68.7144 64.758 69.6112 63.046C70.5895 61.334 71.4862 59.622 72.383 57.9915ZM51.5127 80.0846C49.5561 77.965 47.681 75.6823 45.8875 73.3181C47.7626 73.3996 49.6376 73.4811 51.5127 73.4811C53.3878 73.4811 55.2628 73.3996 57.1379 73.3181C55.3444 75.6823 53.4693 77.965 51.5127 80.0846ZM36.3491 67.8559C33.2512 67.4483 30.3163 66.9592 27.5445 66.307C28.4412 63.6167 29.4195 60.7633 30.6424 57.9099C31.5392 59.5404 32.4359 61.2524 33.4142 62.8829C34.3925 64.6765 35.3708 66.2255 36.3491 67.8559ZM30.6424 47.0672C29.4195 44.2138 28.4412 41.442 27.5445 38.6701C30.3163 38.0179 33.2512 37.5288 36.3491 37.1212C35.3708 38.6701 34.311 40.3006 33.4142 42.0126C32.4359 43.7246 31.5392 45.4367 30.6424 47.0672ZM51.5127 24.974C53.4693 27.0936 55.3444 29.3763 57.1379 31.7405C55.2628 31.659 53.3878 31.5775 51.5127 31.5775C49.6376 31.5775 47.7626 31.659 45.8875 31.7405C47.681 29.3763 49.5561 27.0936 51.5127 24.974ZM69.6112 42.0942L66.6763 37.2027C69.7742 37.6103 72.7091 38.0994 75.4809 38.7516C74.5842 41.442 73.6059 44.2953 72.383 47.1487C71.4862 45.4367 70.5895 43.7246 69.6112 42.0942ZM25.1802 28.8872C23.7943 20.3271 24.9357 14.2942 28.2782 12.3377C29.0934 11.8485 30.0717 11.6039 31.1315 11.6039C36.023 11.6039 42.1374 15.5986 48.2517 21.6315C45.3984 24.7294 42.545 28.3165 39.7732 32.2297C35.0447 32.6373 30.5609 33.371 26.3216 34.2678C25.8324 32.3927 25.5063 30.5992 25.1802 28.8872ZM5.04365 52.5293C5.04365 48.6977 9.69056 44.6214 17.843 41.605C19.4735 40.9528 21.2671 40.3821 23.0606 39.893C24.365 43.9692 25.9955 48.29 27.9521 52.6108C25.9955 56.9316 24.2835 61.1709 23.0606 65.2472C11.8102 61.9862 5.04365 57.0947 5.04365 52.5293ZM28.2782 92.721C24.9357 90.7644 23.7943 84.7315 25.1802 76.1715C25.4248 74.4594 25.8324 72.6659 26.3216 70.7908C30.5609 71.7691 35.0447 72.4213 39.7732 72.8289C42.545 76.7421 45.3984 80.2477 48.2517 83.4272C42.2189 89.3784 36.1045 93.4547 31.1315 93.4547C30.0717 93.4547 29.0934 93.2101 28.2782 92.721ZM77.8452 76.1715C79.2311 84.7315 78.0897 90.7644 74.7472 92.721C73.932 93.2101 72.9537 93.4547 71.8939 93.4547C67.0024 93.4547 60.888 89.46 54.7737 83.4272C57.6271 80.3292 60.4804 76.7421 63.2523 72.8289C67.9807 72.4213 72.4645 71.6876 76.7038 70.7908C77.193 72.6659 77.5191 74.4594 77.8452 76.1715ZM85.1824 63.4536C83.5519 64.1058 81.7583 64.6765 79.9648 65.1656C78.6604 61.0894 77.0299 56.7686 75.0733 52.4478C77.0299 48.127 78.7419 43.8877 79.9648 39.8115C91.2152 43.0725 97.9818 47.9639 97.9818 52.5293C97.9818 56.361 93.2533 60.4372 85.1824 63.4536Z" fill="#61DAFB"/>
</g>
<defs>
<clipPath id="clip0_127_608">
<rect width="101.091" height="98.6448" fill="white" transform="translate(0.967773 0.353638)"/>
</clipPath>
</defs>
</svg>
