<svg width="105" height="95" viewBox="0 0 105 95" fill="none" xmlns="http://www.w3.org/2000/svg">
<g clip-path="url(#clip0_127_664)">
<path d="M93.8729 69.155C88.9986 71.7013 63.7539 82.032 58.3703 84.8692C52.9868 87.7065 50.004 87.6338 45.7844 85.5968C41.5648 83.5597 14.7196 72.7926 9.84532 70.4645C7.44453 69.3005 6.20776 68.3547 6.20776 67.409V58.1696C6.20776 58.1696 41.1283 50.5307 46.8029 48.5664C52.4775 46.5294 54.369 46.4566 59.1706 48.2027C63.9722 49.9487 92.7089 55.114 97.4377 56.8601V65.954C97.4377 66.8997 96.3464 67.9182 93.8729 69.155Z" fill="#A41E11"/>
<path d="M93.873 59.9883C88.9987 62.5346 63.7541 72.8653 58.3705 75.7026C52.9869 78.5399 50.0041 78.4671 45.7845 76.4301C41.565 74.3931 14.7198 63.5531 9.84546 61.2251C5.04389 58.8971 4.89838 57.2965 9.62721 55.4778C14.356 53.5862 41.0557 43.1101 46.7303 41.1458C52.4049 39.1087 54.2964 39.036 59.098 40.782C63.8996 42.528 88.9987 52.495 93.7275 54.241C98.6019 55.987 98.7474 57.442 93.873 59.9883Z" fill="#D82C20"/>
<path d="M93.8729 54.1684C88.9986 56.7147 63.7539 67.0454 58.3703 69.8827C52.9868 72.6472 50.004 72.6472 45.7844 70.6102C41.5648 68.5732 14.7196 57.7332 9.84532 55.4052C7.44453 54.2412 6.20776 53.2954 6.20776 52.3497V43.1103C6.20776 43.1103 41.1283 35.4714 46.8029 33.5071C52.4775 31.4701 54.369 31.3973 59.1706 33.1434C63.9722 34.8894 92.7089 40.0547 97.4377 41.8007V50.8946C97.4377 51.8404 96.3464 52.8589 93.8729 54.1684Z" fill="#A41E11"/>
<path d="M93.873 44.9288C88.9987 47.475 63.754 57.8057 58.3704 60.643C52.9868 63.4076 50.004 63.4076 45.7845 61.3705C41.5649 59.3335 14.7197 48.4936 9.84541 46.1655C4.97109 43.8375 4.89833 42.237 9.62716 40.4182C14.356 38.5267 41.0557 28.0505 46.7302 26.0862C52.4048 24.0492 54.2964 23.9764 59.0979 25.7225C63.8995 27.4685 88.9987 37.4354 93.7275 39.1814C98.6018 40.9274 98.7473 42.3825 93.873 44.9288Z" fill="#D82C20"/>
<path d="M93.8731 38.5268C88.9988 41.0731 63.7542 51.4038 58.3706 54.2411C52.987 57.0056 50.0042 57.0056 45.7846 54.9686C41.5651 53.0043 14.7199 42.1644 9.84556 39.8364C7.44477 38.6723 6.13525 37.7266 6.13525 36.7808V27.5414C6.13525 27.5414 41.0558 19.9025 46.7304 17.9383C52.405 15.9012 54.2965 15.8285 59.0981 17.5745C63.8997 19.3205 92.6364 24.4859 97.3652 26.2319V35.3258C97.4379 36.2715 96.3467 37.2173 93.8731 38.5268Z" fill="#A41E11"/>
<path d="M93.873 29.2874C88.9987 31.8337 63.754 42.1644 58.3704 45.0016C52.9868 47.7662 50.004 47.7662 45.7845 45.7292C41.5649 43.6921 14.7197 32.925 9.84541 30.5969C4.97109 28.2689 4.89833 26.6684 9.62716 24.8496C14.356 22.9581 41.0557 12.4819 46.7302 10.5176C52.4048 8.48057 54.2964 8.40782 59.0979 10.1538C63.8995 11.8999 88.9987 21.8668 93.7275 23.6128C98.6018 25.3588 98.7473 26.8139 93.873 29.2874Z" fill="#D82C20"/>
<path d="M63.7539 20.4119L55.8968 21.2849L54.078 25.5044L51.2407 20.7756L42.1468 19.9753L48.9127 17.5018L46.8757 13.7188L53.2778 16.1923L59.2434 14.228L57.6428 18.1566L63.7539 20.4119ZM53.6415 41.0732L38.873 34.9621L60.0436 31.761L53.6415 41.0732Z" fill="white"/>
<path d="M33.1986 31.5429C39.4264 31.5429 44.475 29.5886 44.475 27.1778C44.475 24.7671 39.4264 22.8127 33.1986 22.8127C26.9708 22.8127 21.9221 24.7671 21.9221 27.1778C21.9221 29.5886 26.9708 31.5429 33.1986 31.5429Z" fill="white"/>
<path d="M73.1387 21.5758L85.6519 26.5229L73.1387 31.47V21.5758Z" fill="#7A0C00"/>
<path d="M59.3159 27.1049L73.1386 21.5758V31.47L71.7564 32.052L59.3159 27.1049Z" fill="#AD2115"/>
</g>
<defs>
<clipPath id="clip0_127_664">
<rect width="104.028" height="101.511" fill="white" transform="translate(0.228271 -6.96582)"/>
</clipPath>
</defs>
</svg>
