<svg width="103" height="100" viewBox="0 0 103 100" fill="none" xmlns="http://www.w3.org/2000/svg">
<g clip-path="url(#clip0_127_603)">
<g clip-path="url(#clip1_127_603)">
<path d="M67.6231 69.4768C60.8591 83.3054 49.0146 92.6096 33.3447 95.6685C30.942 96.2571 28.4756 96.5449 26.002 96.5252C16.9833 96.5252 8.7162 92.7675 4.70289 86.6122C-0.685761 78.4128 -2.51956 61.0293 15.2472 48.1702C15.608 50.1317 16.3445 52.8223 16.833 54.4156C13.3453 57.0067 10.4904 60.3549 8.48321 64.2084C5.17637 70.7018 5.54463 77.1877 9.46024 83.1851C12.1658 87.2285 16.4497 89.6861 21.9586 90.4376C28.8394 91.3086 35.8198 89.994 41.9124 86.6799C51.4647 81.6595 57.8303 75.6621 61.994 67.4626C60.8166 66.2459 60.1198 64.644 60.0324 62.9533C59.9695 61.1389 60.6289 59.3737 61.866 58.045C63.1031 56.7163 64.8168 55.9327 66.6311 55.8661H66.8866C68.6512 55.8573 70.3517 56.5271 71.6362 57.7371C72.9207 58.947 73.6909 60.6045 73.7875 62.3665C73.884 64.1285 73.2995 65.8602 72.1549 67.2032C71.0103 68.5463 69.3932 69.398 67.6381 69.582L67.6231 69.4768ZM89.1702 54.2953C98.3467 64.6969 98.5947 76.9397 95.0474 84.0419C91.7405 90.5278 83.0225 97.0213 71.2982 97.0213C65.8251 96.9096 60.441 95.6149 55.5155 93.2259C57.2366 92.0009 59.6792 90.0393 61.0245 88.8143C64.8227 90.4598 68.9103 91.3335 73.0493 91.3846C80.64 91.3846 86.3894 87.8373 89.8165 81.3513C92.0186 77.0675 92.1464 72.0471 90.0645 66.9064C87.5101 60.4384 82.9645 54.9506 77.0852 51.2365C69.3717 46.0368 60.2785 43.2649 50.9762 43.2775H48.7741C48.2606 44.4637 47.4253 45.4824 46.3626 46.2182C45.3 46.9541 44.0526 47.3777 42.7617 47.4412H42.5287C40.7431 47.4192 39.0364 46.702 37.7711 45.442C36.5058 44.1819 35.7816 42.4782 35.7522 40.6928C35.7229 38.9073 36.3907 37.1807 37.6139 35.8797C38.8371 34.5788 40.5193 33.8059 42.3032 33.7253H42.5512C43.7943 33.7262 45.0132 34.0697 46.0738 34.718C47.1345 35.3664 47.996 36.2945 48.5637 37.4004H50.5252C66.1576 37.4004 79.881 43.3978 89.1702 54.2953ZM26.979 71.5811C26.8503 70.3331 27.1526 69.0786 27.8358 68.0263C20.9816 56.1517 17.314 41.098 22.9431 25.4281C26.979 13.6512 37.14 5.69226 48.1578 5.69226C59.9121 5.69226 72.155 15.9811 73.6205 35.8071C71.7867 35.1983 69.1112 34.304 67.5029 33.9733C67.1045 27.4874 61.6257 11.3289 48.6463 11.5694C43.9942 11.6972 37.14 13.8992 33.6152 18.4236C29.2552 23.8244 26.7188 30.468 26.3702 37.4004C25.5441 46.9059 27.7742 56.4269 32.7359 64.5766C33.0098 64.4765 33.3018 64.4356 33.5927 64.4564H33.8332C35.651 64.4235 37.4075 65.1141 38.7161 66.3762C40.0248 67.6384 40.7785 69.3687 40.8114 71.1865C40.8443 73.0044 40.1537 74.7608 38.8915 76.0695C37.6294 77.3782 35.899 78.1318 34.0812 78.1647H33.8332C32.0597 78.1584 30.3571 77.468 29.0802 76.2373C27.8033 75.0066 27.0506 73.3306 26.979 71.5586V71.5811Z" fill="#764ABC"/>
</g>
</g>
<defs>
<clipPath id="clip0_127_603">
<rect width="101.091" height="98.6448" fill="white" transform="translate(0.967285 0.811523)"/>
</clipPath>
<clipPath id="clip1_127_603">
<rect width="96.1991" height="96.1991" fill="white" transform="translate(0.967285 3.25708)"/>
</clipPath>
</defs>
</svg>
