<svg width="104" height="106" viewBox="0 0 104 106" fill="none" xmlns="http://www.w3.org/2000/svg">
<g clip-path="url(#clip0_127_621)">
<path fill-rule="evenodd" clip-rule="evenodd" d="M1.34729 46.5224C1.34729 47.0955 1.51605 47.4738 1.61061 47.8414C2.22694 50.2326 3.55172 52.2845 5.12351 54.1563C7.36218 56.8238 10.1039 58.9712 12.9124 60.9906C15.3483 62.7417 17.834 64.4537 20.2798 66.1918C20.6996 66.4902 21.0966 66.8334 21.5524 67.1995C21.1602 67.4114 20.8341 67.5981 20.495 67.7701C17.2674 69.4072 14.1621 71.2423 11.2998 73.4655C9.57476 74.8057 7.90676 76.23 6.72873 78.0912C4.83328 81.0847 4.16234 84.274 5.57516 87.6793C5.98767 88.6739 6.61704 89.5331 7.50485 90.1682C7.79263 90.3737 8.11547 90.5775 8.45216 90.6574C9.31469 90.8604 10.1935 90.9933 11.0667 91.1539L13.5393 91.1522C16.2736 90.9085 18.7626 89.9717 21.0119 88.4195C24.5272 85.9933 26.8955 82.7405 27.9137 78.5656C28.654 75.5313 28.6841 72.4937 27.8118 69.4732C27.7283 69.1934 27.632 68.9175 27.5232 68.6465C27.4172 68.3751 27.2925 68.1109 27.1458 67.7726L32.7514 64.5491L32.8354 64.6208C32.7335 64.9543 32.625 65.2869 32.5329 65.6236C31.8669 68.0563 31.4242 70.5314 31.5831 73.0562C31.7527 75.7465 32.5036 78.2648 34.0786 80.5124C35.352 82.3304 38.3864 82.3981 39.7397 80.5736C40.2199 79.9255 40.6854 79.248 41.0351 78.5249C41.949 76.6376 42.7952 74.7169 43.6684 72.8092L43.8208 72.4603C43.758 73.3636 43.6847 74.1568 43.6512 74.9508C43.5991 76.1908 43.6716 77.4235 44.0956 78.6031C44.4583 79.6124 45.0755 80.3665 46.2315 80.4994C47.0223 80.5899 47.6525 80.2279 48.2337 79.7689C49.1343 79.0573 49.8806 78.17 50.4276 77.161C51.9774 74.3149 53.5687 71.486 54.9734 68.5683C56.493 65.4124 57.8219 62.1645 59.233 58.9549L59.4662 58.3858C59.7996 59.6959 60.032 60.9791 60.46 62.1939C60.9573 63.6034 61.5728 64.9796 62.2429 66.3174C62.5601 66.9492 62.5234 67.3593 62.084 67.8892C60.2448 70.1066 58.4374 72.351 56.6283 74.5929C56.2281 75.0878 55.8294 75.5916 55.496 76.1321C55.2937 76.4735 55.1607 76.8513 55.1046 77.2441C55.0485 77.6057 55.1346 77.975 55.3448 78.2746C55.555 78.5742 55.873 78.7807 56.2321 78.851C56.9569 79.0071 57.7002 79.06 58.4398 79.0083C60.9646 78.8224 63.2571 77.9363 65.2838 76.4346C67.9097 74.4894 68.7527 71.835 68.1168 68.6889C67.9448 67.8354 67.6407 67.0054 67.3447 66.1829C67.2119 65.8119 67.2029 65.5519 67.445 65.2062C69.5443 62.2085 71.3378 59.0283 73.0058 55.7746C73.0719 55.6466 73.1395 55.5186 73.2553 55.3817C73.7958 58.1943 74.6094 60.905 76.0671 63.3646C75.3236 64.0812 74.5874 64.7309 73.9213 65.4467C72.4547 67.0234 71.1829 68.7354 70.5193 70.8232C70.234 71.7233 70.0147 72.638 70.1419 73.5992C70.3391 75.0919 71.562 76.062 73.0303 75.7221C76.1722 74.9949 78.8846 73.5144 80.8664 70.8917C82.2002 69.1259 82.3216 67.1563 81.7632 65.0929C81.6099 64.532 81.4281 63.9801 81.2325 63.3368C82.0078 63.0963 82.7635 62.8077 83.5453 62.6292C87.6044 61.7031 91.6195 61.8645 95.5311 63.3303C97.8146 64.1863 99.6595 65.6187 100.754 67.8721C102.09 70.6268 101.351 73.2405 98.7546 74.9818C98.5124 75.1441 98.2353 75.272 98.0347 75.475C97.9705 75.5495 97.9224 75.6365 97.8937 75.7306C97.8649 75.8246 97.856 75.9236 97.8676 76.0213C97.8847 76.1215 98.1497 76.2471 98.3021 76.2454C99.1557 76.2389 99.8478 75.7914 100.512 75.3316C102.177 74.1796 103.392 72.6298 103.653 70.5893L103.705 70.436L103.642 69.1072C103.617 69.0305 103.661 68.9547 103.655 68.8968C103.301 65.9252 101.714 63.6205 99.4051 61.814C96.7311 59.7228 93.5737 58.8619 90.2344 58.7258C87.5262 58.6092 84.8214 59.0256 82.2735 59.9511C81.5423 60.2161 80.8175 60.5299 80.0822 60.8259C79.9835 60.6473 79.8775 60.4761 79.7903 60.2992C79.0354 58.7535 78.1207 57.2763 77.9185 55.5039C77.775 54.2452 77.5989 52.9881 77.8981 51.7432C78.1859 50.5456 78.5609 49.3684 78.9139 48.1871C79.0957 47.5789 78.9677 47.2382 78.3873 46.9642C78.185 46.8634 77.9692 46.7925 77.7465 46.7539C76.3198 46.5468 74.9127 46.665 73.5308 47.067C73.0417 47.2096 72.6862 47.4836 72.5778 48.0249C72.5159 48.3355 72.3895 48.633 72.3014 48.9396C71.9403 50.2138 71.6843 51.5125 71.1006 52.7264C69.638 55.7713 67.9684 58.7013 66.2597 61.6101C66.0746 61.924 65.8798 62.2322 65.6466 62.6129C65.0466 61.3574 64.4066 60.2307 64.2126 58.91C63.9933 57.4165 63.8204 55.9254 64.1922 54.4433C64.4686 53.3378 64.8297 52.2527 65.1623 51.1619C65.3197 50.6434 65.2471 50.3712 64.7775 50.098C64.5403 49.9603 64.2721 49.838 64.0047 49.798C62.5418 49.5752 61.0471 49.6975 59.6399 50.1551C59.1972 50.2986 58.9648 50.5848 58.8295 51.0413C58.4317 52.3881 58.0925 53.7675 57.5341 55.0482C55.2726 60.2332 52.9459 65.3913 50.6216 70.5485C50.1365 71.6254 49.5683 72.6649 49.0213 73.7133C48.8827 73.9791 48.6805 74.213 48.5077 74.4625C48.3691 74.2986 48.3153 74.1861 48.3161 74.0736C48.3202 73.4108 48.2411 72.7285 48.3674 72.0877C48.7555 70.1497 49.1844 68.2201 49.6539 66.3003C50.0371 64.7138 50.483 63.142 50.9078 61.5661C51.0504 61.0387 51.0529 60.5454 50.6738 60.1019C50.0371 59.3592 48.7066 59.1962 47.9174 59.7685L47.5685 59.9658L47.6362 59.4033C47.8025 58.1975 47.8359 56.9958 47.5049 55.808C47.0924 54.3275 46.0358 53.4756 44.4999 53.5229C43.7841 53.5449 43.0325 53.6672 42.3697 53.9281C39.5823 55.0205 37.4391 56.9551 35.6145 59.2826C35.4454 59.4987 35.2358 59.6798 34.9974 59.8158C32.6389 61.1234 30.273 62.4148 27.908 63.711L25.2756 65.1532C24.5696 64.4798 23.928 63.7811 23.2 63.1885C20.9768 61.3754 18.7177 59.6071 16.4791 57.8144C14.4948 56.2254 12.5724 54.5705 11.1017 52.4663C10.0077 50.9011 9.30246 49.1882 9.2348 47.2528C9.1492 44.7867 9.84868 42.5334 11.1042 40.4357C12.7102 37.752 14.9008 35.5981 17.309 33.6472C19.8566 31.5846 22.6122 29.8335 25.468 28.2348C29.4635 25.9985 33.5732 24.0191 37.9796 22.7123C42.4977 21.372 47.0818 20.6049 51.8102 21.1397C53.669 21.35 55.4739 21.7756 57.1313 22.6846C58.4007 23.38 59.4417 24.2906 59.926 25.714C60.4037 27.1146 60.3891 28.534 60.0581 29.9566C59.3855 32.8376 57.808 35.2125 55.8229 37.3346C52.5668 40.8132 48.5949 43.1815 44.1233 44.746C41.5522 45.6467 38.8772 46.2173 36.1624 46.4441C33.9376 46.6308 31.7592 46.4335 29.6526 45.6598C28.2578 45.1471 27.043 44.3628 26.0664 43.2247C25.8919 43.0209 25.6685 42.8 25.3433 42.9907C25.0245 43.1782 24.9682 43.4815 25.075 43.7889C25.2536 44.2992 25.4183 44.8307 25.6963 45.2873C26.3949 46.4327 27.414 47.2634 28.5358 47.976C30.6905 49.3464 33.0987 49.807 35.5958 49.9138C39.3851 50.0777 43.0822 49.5119 46.7272 48.4953C51.9309 47.0441 56.4555 44.481 60.0842 40.4374C63.1055 37.0704 65.2634 33.2705 65.7257 28.6823C65.9515 26.4429 65.711 24.249 64.6626 22.206C63.5253 19.9926 61.7171 18.3466 59.5551 17.2126C56.4066 15.5618 53.0086 14.6006 49.5014 14.6006H45.9877C41.7403 14.6006 37.6339 15.8177 33.6425 17.2697C30.6212 18.3695 27.6586 19.6673 24.7824 21.1038C18.5188 24.2335 12.6857 28.0073 7.89453 33.1964C5.50749 35.7815 3.4865 38.6341 2.32396 41.9929C1.97308 42.9957 1.67081 44.0148 1.41822 45.0468M24.1139 74.4063C23.8424 78.0414 22.1948 80.9885 19.502 83.3756C17.9873 84.7175 16.25 85.673 14.2266 86.0088C13.4928 86.1303 12.742 86.1597 12.0303 85.8556C11.0153 85.4219 10.7878 84.521 10.7683 83.5615C10.7381 82.0321 11.2737 80.6494 12.0083 79.3336C12.967 77.6183 14.3725 76.3107 15.8734 75.0894C18.2376 73.1646 20.8023 71.5358 23.4291 69.9982L23.6272 69.9167C24.0332 71.4167 24.2264 72.898 24.1139 74.4063ZM44.6238 58.6076C44.4323 59.7685 44.1926 60.9302 43.8534 62.0553C42.6811 65.9497 41.1753 69.7235 39.5473 73.4467C39.2465 74.1356 38.8087 74.7641 38.428 75.4172C38.3632 75.5175 38.2856 75.6091 38.1972 75.6894C37.726 76.155 37.2793 76.1305 37.0412 75.5215C36.764 74.8139 36.5937 74.0565 36.4469 73.3073C36.3483 72.8043 36.3719 72.276 36.3409 71.7608C36.3727 68.0971 37.4904 64.7676 39.3867 61.668C40.1685 60.3897 41.0196 59.1717 42.3199 58.363C42.7245 58.1115 43.1621 57.9178 43.6203 57.7875C44.3132 57.5926 44.7388 57.913 44.6238 58.6076ZM58.6167 76.4354L63.646 70.5632C63.8555 72.744 60.1486 77.0974 58.6167 76.4354ZM74.6795 72.4839C74.3241 72.6877 73.9368 72.8345 73.5724 73.0228C73.239 73.1956 73.1289 73.0211 73.1191 72.7342C73.1142 72.5355 73.1398 72.3373 73.195 72.1464C73.8741 69.7512 75.1238 67.7066 76.9834 66.0434L77.1138 65.9766C77.9984 68.4509 76.9761 71.1681 74.6795 72.4839Z" fill="#CB6699"/>
</g>
<defs>
<clipPath id="clip0_127_621">
<rect width="103.614" height="104.485" fill="white" transform="translate(0.353638 0.741455)"/>
</clipPath>
</defs>
</svg>
