<svg width="90" height="91" viewBox="0 0 90 91" fill="none" xmlns="http://www.w3.org/2000/svg">
<path d="M44.9829 0.388428C20.2588 0.388428 0.135132 20.5121 0.135132 45.2362C0.135132 69.9604 20.2588 90.084 44.9829 90.084C69.7071 90.084 89.8307 69.9604 89.8307 45.2362C89.8307 20.5121 69.7078 0.388428 44.9829 0.388428ZM44.9829 7.87756C65.6599 7.87756 82.3423 24.5593 82.3423 45.2362C82.3423 65.9139 65.6599 82.5956 44.9829 82.5956C24.306 82.5956 7.62356 65.9139 7.62356 45.2362C7.62356 24.5593 24.306 7.87756 44.9829 7.87756Z" fill="#010101"/>
<path fill-rule="evenodd" clip-rule="evenodd" d="M34.0701 42.9673C43.891 34.9445 53.4973 26.6426 63.5322 18.854C58.2689 26.942 52.8556 34.9228 47.5924 43.0101C43.0782 43.0311 38.5632 43.0311 34.0701 42.9673ZM42.372 47.4388C46.908 47.4388 51.4222 47.4388 55.9364 47.5033C46.0517 55.484 36.4881 63.8498 26.4323 71.6166C31.6955 63.5286 37.1088 55.5268 42.372 47.4388Z" fill="#010101"/>
</svg>
