<svg width="66" height="67" viewBox="0 0 66 67" fill="none" xmlns="http://www.w3.org/2000/svg">
<g clip-path="url(#clip0_127_51)">
<path d="M33.1218 0.560547C15.0215 0.560547 0.289185 15.2929 0.289185 33.3932C0.289185 51.4935 15.0215 66.2258 33.1218 66.2258C51.2221 66.2258 65.9544 51.4935 65.9544 33.3932C65.9544 15.2929 51.2226 0.560547 33.1218 0.560547ZM33.1218 6.04326C48.2592 6.04326 60.4722 18.2558 60.4722 33.3932C60.4722 48.5311 48.2592 60.7436 33.1218 60.7436C17.9844 60.7436 5.77138 48.5311 5.77138 33.3932C5.77138 18.2558 17.9844 6.04326 33.1218 6.04326Z" fill="#B9B9B9"/>
<path fill-rule="evenodd" clip-rule="evenodd" d="M25.1326 31.7322C32.3224 25.8588 39.3551 19.781 46.7015 14.0791C42.8483 20.0003 38.8853 25.8429 35.0322 31.7635C31.7273 31.7789 28.422 31.7789 25.1326 31.7322ZM31.2103 35.0057C34.5311 35.0057 37.8359 35.0057 41.1407 35.053C33.9042 40.8956 26.9028 47.02 19.541 52.7061C23.3942 46.7849 27.3572 40.9269 31.2103 35.0057Z" fill="#B9B9B9"/>
</g>
<defs>
<clipPath id="clip0_127_51">
<rect width="65.7166" height="65.7166" fill="white" transform="translate(0.288574 0.55957)"/>
</clipPath>
</defs>
</svg>
