<svg width="105" height="103" viewBox="0 0 105 103" fill="none" xmlns="http://www.w3.org/2000/svg">
<g clip-path="url(#clip0_127_465)">
<path d="M15.8917 34.1008H99.5081V95.905H15.8917V34.1008Z" fill="white"/>
<path d="M-1.86841 48.2871V100.72H102.998V-4.14612H-1.86841V48.2871ZM82.6372 44.0925C85.1489 44.6754 87.4317 45.989 89.1977 47.8677C90.1699 48.8798 91.0151 50.0067 91.7145 51.2234C91.7145 51.3576 87.1842 54.4197 84.4242 56.1312C84.3235 56.1983 83.9208 55.762 83.4762 55.0993C82.9723 54.2299 82.2564 53.5023 81.3952 52.9844C80.5341 52.4665 79.5558 52.1753 78.5516 52.1378C75.3721 51.9197 73.3251 53.5892 73.3419 56.3325C73.3156 57.0155 73.472 57.6932 73.7949 58.2956C74.4912 59.747 75.7915 60.6111 79.8688 62.3728C87.3772 65.6027 90.5903 67.7336 92.587 70.7621C94.8185 74.1179 95.3135 79.5374 93.8034 83.5475C92.1256 87.9099 88.0148 90.8713 82.201 91.8529C79.5456 92.157 76.8627 92.1289 74.2144 91.769C70.1553 91.0999 66.4163 89.1511 63.5431 86.2069C62.5784 85.1414 60.6992 82.3646 60.8166 82.1632C61.1229 81.9359 61.4453 81.7312 61.7814 81.5508L65.6656 79.4031L68.6774 77.6582L69.3066 78.5894C70.3685 80.1083 71.7198 81.4027 73.2831 82.3981C76.6389 84.1599 81.2194 83.9166 83.4846 81.878C84.2451 81.131 84.7195 80.1409 84.8253 79.0801C84.9311 78.0193 84.6615 76.9551 84.0634 76.0726C83.2245 74.9065 81.5466 73.9249 76.857 71.8779C71.4459 69.5457 69.1136 68.1027 66.9828 65.804C65.6525 64.2872 64.6703 62.4975 64.1052 60.5607C63.6837 58.348 63.6214 56.0818 63.9207 53.8493C65.0364 48.6227 68.9542 44.9734 74.6758 43.8911C77.3255 43.5633 80.0095 43.6368 82.6372 44.1093V44.0925ZM58.023 48.4885V52.7838H44.4071V91.5677H34.751V52.7754H21.1016V48.5808C21.059 47.1342 21.0926 45.6865 21.2022 44.2435C21.2693 44.168 29.5916 44.168 39.6587 44.168H57.9726L58.023 48.4885Z" fill="#007ACC"/>
</g>
<defs>
<clipPath id="clip0_127_465">
<rect width="104.028" height="101.511" fill="white" transform="translate(0.22876 0.543213)"/>
</clipPath>
</defs>
</svg>
