<svg width="66" height="63" viewBox="0 0 66 63" fill="none" xmlns="http://www.w3.org/2000/svg">
<g clip-path="url(#clip0_127_556)">
<path fill-rule="evenodd" clip-rule="evenodd" d="M35 2.63123C18.8475 2.63123 5.74951 16.5711 5.74951 33.7688C5.74951 47.5267 14.1307 59.1979 25.7527 63.3156C27.2141 63.6044 27.7508 62.6402 27.7508 61.8178C27.7508 61.0753 27.7237 58.6224 27.7111 56.0206C19.5736 57.9042 17.8565 52.3468 17.8565 52.3468C16.5259 48.7477 14.6087 47.7907 14.6087 47.7907C11.9544 45.8581 14.8088 45.8984 14.8088 45.8984C17.7455 46.1175 19.2926 49.1071 19.2926 49.1071C21.9015 53.8663 26.1354 52.4906 27.8046 51.6955C28.0671 49.683 28.8251 48.3089 29.6617 47.5313C23.1647 46.745 16.3346 44.0746 16.3346 32.1435C16.3346 28.744 17.4777 25.9664 19.3488 23.7853C19.0446 23.0015 18.0434 19.8345 19.6317 15.5456C19.6317 15.5456 22.0875 14.7087 27.6772 18.7373C30.0109 18.0469 32.5137 17.6999 35 17.688C37.4848 17.6999 39.989 18.0458 42.3271 18.7363C47.91 14.7077 50.3629 15.5445 50.3629 15.5445C51.955 19.833 50.9538 23.0005 50.6501 23.7842C52.5256 25.9653 53.6605 28.743 53.6605 32.1425C53.6605 44.1019 46.8177 46.7347 40.3043 47.5061C41.354 48.4724 42.2888 50.3678 42.2888 53.2723C42.2888 57.4386 42.2549 60.7917 42.2549 61.8172C42.2549 62.6459 42.7819 63.6168 44.2641 63.311C55.8794 59.1891 64.2509 47.5215 64.2509 33.7688C64.2504 16.5722 51.1539 2.63123 35 2.63123Z" fill="white"/>
<path d="M16.8281 47.3375C16.7637 47.4921 16.535 47.5385 16.3268 47.4328C16.1136 47.3318 15.995 47.1209 16.0637 46.9657C16.1267 46.8058 16.3558 46.762 16.5675 46.8688C16.7806 46.9703 16.9017 47.1833 16.8276 47.338L16.8281 47.3375ZM18.0129 48.7446C17.8738 48.8823 17.6011 48.8183 17.4161 48.6002C17.2243 48.3837 17.1885 48.0934 17.3304 47.9536C17.4747 47.8165 17.7392 47.8814 17.931 48.098C18.1218 48.3177 18.1596 48.6054 18.0133 48.7451L18.0129 48.7446ZM19.1666 50.5374C18.9874 50.6705 18.6939 50.5462 18.5127 50.2693C18.3335 49.9919 18.3335 49.6593 18.5176 49.5268C18.6983 49.3938 18.9874 49.5139 19.1715 49.7882C19.3497 50.0692 19.3497 50.4023 19.1666 50.5374ZM20.7462 52.2704C20.5863 52.4586 20.2444 52.4081 19.9944 52.1518C19.7392 51.9007 19.668 51.5434 19.8283 51.3557C19.991 51.167 20.3345 51.2196 20.5859 51.4743C20.8411 51.7249 20.9181 52.0828 20.7472 52.2699L20.7462 52.2704ZM22.9259 53.2764C22.8547 53.5203 22.5263 53.6312 22.1945 53.527C21.8636 53.4203 21.6471 53.1351 21.7149 52.8887C21.7828 52.6427 22.1136 52.5277 22.4473 52.6386C22.7781 52.7448 22.9947 53.0284 22.9259 53.2764ZM25.3201 53.4626C25.3284 53.7193 25.0474 53.9318 24.7001 53.9369C24.3499 53.9457 24.0666 53.7374 24.0632 53.4847C24.0632 53.2254 24.3383 53.0155 24.688 53.0083C25.0353 53.0016 25.3206 53.2078 25.3206 53.462L25.3201 53.4626ZM27.5473 53.0593C27.589 53.3094 27.3472 53.5667 27.0019 53.6353C26.6628 53.7023 26.348 53.5466 26.3044 53.2986C26.2627 53.0418 26.5088 52.7845 26.8479 52.718C27.1937 52.6546 27.5037 52.8051 27.5473 53.0593Z" fill="white"/>
</g>
<defs>
<clipPath id="clip0_127_556">
<rect width="66" height="63" fill="white"/>
</clipPath>
</defs>
</svg>
