<svg width="66" height="63" viewBox="0 0 66 63" fill="none" xmlns="http://www.w3.org/2000/svg">
<g clip-path="url(#clip0_127_561)">
<path d="M59.8125 0.546869H6.1875C4.97079 0.534486 3.79885 1.00528 2.92885 1.85595C2.05884 2.70662 1.56183 3.86768 1.54688 5.08437V58.9259C1.56454 60.1408 2.06274 61.2992 2.93245 62.1477C3.80216 62.9961 4.97255 63.4655 6.1875 63.4531H59.8125C61.0293 63.4628 62.2004 62.9904 63.07 62.1392C63.9395 61.288 64.4368 60.1272 64.4531 58.9105V5.0689C64.4314 3.85578 63.9318 2.70026 63.0628 1.85349C62.1938 1.00673 61.0258 0.537164 59.8125 0.546869Z" fill="#E3E3E3"/>
<path d="M10.8591 24.1264H20.197V54.1719H10.8591V24.1264ZM15.5306 9.17328C16.6017 9.17328 17.6486 9.49094 18.5391 10.0861C19.4295 10.6812 20.1234 11.5271 20.5331 12.5167C20.9427 13.5063 21.0496 14.5951 20.8403 15.6455C20.631 16.6958 20.1148 17.6605 19.3571 18.4175C18.5994 19.1744 17.6343 19.6897 16.5837 19.898C15.5331 20.1063 14.4444 19.9984 13.4552 19.5878C12.466 19.1772 11.6208 18.4825 11.0265 17.5915C10.4322 16.7005 10.1156 15.6532 10.1166 14.5822C10.1179 13.1472 10.689 11.7714 11.7041 10.7572C12.7193 9.74298 14.0956 9.17328 15.5306 9.17328ZM26.0545 24.1264H35.0058V28.2514H35.1295C36.3774 25.8898 39.4195 23.3994 43.9622 23.3994C53.4188 23.3787 55.1719 29.6023 55.1719 37.6719V54.1719H45.8339V39.5539C45.8339 36.0734 45.772 31.5927 40.9819 31.5927C36.1917 31.5927 35.377 35.3877 35.377 39.327V54.1719H26.0545V24.1264Z" fill="#3D3D3D"/>
</g>
<defs>
<clipPath id="clip0_127_561">
<rect width="66" height="63" fill="white"/>
</clipPath>
</defs>
</svg>
